<mxfile host="app.diagrams.net" agent="Mozilla/5.0 (Macintosh; Intel Mac OS X 10_15_7) AppleWebKit/537.36 (KHTML, like Gecko) Chrome/136.0.0.0 Safari/537.36" version="27.1.1">
  <diagram name="페이지-1" id="o6dZUBWYE0fN_ijHaVqc">
    <mxGraphModel dx="1653" dy="849" grid="1" gridSize="10" guides="1" tooltips="1" connect="1" arrows="1" fold="1" page="1" pageScale="1" pageWidth="827" pageHeight="1169" math="0" shadow="0">
      <root>
        <mxCell id="0" />
        <mxCell id="1" parent="0" />
        <mxCell id="21FRXAbta1S1sVLUq5K--55" style="edgeStyle=orthogonalEdgeStyle;rounded=0;orthogonalLoop=1;jettySize=auto;html=1;strokeWidth=5;" edge="1" parent="1" source="21FRXAbta1S1sVLUq5K--2" target="21FRXAbta1S1sVLUq5K--62">
          <mxGeometry relative="1" as="geometry">
            <mxPoint x="430" y="490" as="targetPoint" />
          </mxGeometry>
        </mxCell>
        <mxCell id="21FRXAbta1S1sVLUq5K--2" value="" style="image;html=1;image=img/lib/clip_art/general/Empty_Folder_128x128.png;shadow=0;" vertex="1" parent="1">
          <mxGeometry x="199.77" y="440" width="100" height="100" as="geometry" />
        </mxCell>
        <mxCell id="21FRXAbta1S1sVLUq5K--8" value="compressed.txt" style="verticalLabelPosition=bottom;html=1;verticalAlign=top;align=center;strokeColor=none;fillColor=#000000;shape=mxgraph.azure.cloud_services_configuration_file;pointerEvents=1;" vertex="1" parent="1">
          <mxGeometry x="614.91" y="450" width="76" height="80" as="geometry" />
        </mxCell>
        <mxCell id="21FRXAbta1S1sVLUq5K--19" value="&lt;font style=&quot;font-size: 10px;&quot;&gt;LLM&lt;/font&gt;&lt;div&gt;&lt;font style=&quot;font-weight: normal; font-size: 9px;&quot;&gt;ChatGPT, Gemini, Claude, ...&lt;/font&gt;&lt;/div&gt;" style="html=1;shape=isoCube2;backgroundOutline=1;isoAngle=15;strokeWidth=7;labelPosition=center;verticalLabelPosition=bottom;align=center;verticalAlign=top;fontStyle=1" vertex="1" parent="1">
          <mxGeometry x="550" y="747.5" width="90" height="100" as="geometry" />
        </mxCell>
        <mxCell id="21FRXAbta1S1sVLUq5K--21" value="" style="shape=umlActor;verticalLabelPosition=bottom;verticalAlign=top;html=1;outlineConnect=0;strokeWidth=4;" vertex="1" parent="1">
          <mxGeometry x="170" y="777.5" width="54.23" height="108.46" as="geometry" />
        </mxCell>
        <mxCell id="21FRXAbta1S1sVLUq5K--27" style="edgeStyle=orthogonalEdgeStyle;rounded=0;orthogonalLoop=1;jettySize=auto;html=1;strokeWidth=3;sourcePerimeterSpacing=0;targetPerimeterSpacing=11;startArrow=openThin;startFill=0;" edge="1" parent="1" source="21FRXAbta1S1sVLUq5K--22" target="21FRXAbta1S1sVLUq5K--19">
          <mxGeometry relative="1" as="geometry" />
        </mxCell>
        <mxCell id="21FRXAbta1S1sVLUq5K--22" value="" style="whiteSpace=wrap;html=1;shape=mxgraph.basic.oval_callout;strokeWidth=2;" vertex="1" parent="1">
          <mxGeometry x="235" y="727.5" width="205" height="140" as="geometry" />
        </mxCell>
        <mxCell id="21FRXAbta1S1sVLUq5K--17" value="" style="verticalLabelPosition=bottom;html=1;verticalAlign=top;align=center;strokeColor=none;fillColor=#000000;shape=mxgraph.azure.cloud_services_configuration_file;pointerEvents=1;" vertex="1" parent="1">
          <mxGeometry x="360" y="767.5" width="38" height="40" as="geometry" />
        </mxCell>
        <mxCell id="21FRXAbta1S1sVLUq5K--26" value="Question ... ?,&amp;nbsp;" style="text;html=1;align=center;verticalAlign=middle;whiteSpace=wrap;rounded=0;fontStyle=1" vertex="1" parent="1">
          <mxGeometry x="260.77" y="772.5" width="99.23" height="30" as="geometry" />
        </mxCell>
        <mxCell id="21FRXAbta1S1sVLUq5K--29" value="" style="html=1;verticalLabelPosition=bottom;align=center;labelBackgroundColor=#ffffff;verticalAlign=top;strokeWidth=3;strokeColor=#B09500;shadow=0;dashed=0;shape=mxgraph.ios7.icons.lightbulb;fillColor=#e3c800;fontColor=#000000;" vertex="1" parent="1">
          <mxGeometry x="650" y="722.5" width="40.91" height="50" as="geometry" />
        </mxCell>
        <mxCell id="21FRXAbta1S1sVLUq5K--41" value="" style="group" vertex="1" connectable="0" parent="1">
          <mxGeometry x="112" y="416.5" width="99.00000000000001" height="147" as="geometry" />
        </mxCell>
        <mxCell id="21FRXAbta1S1sVLUq5K--3" value="" style="sketch=0;outlineConnect=0;fontColor=#232F3E;gradientColor=none;fillColor=#000000;strokeColor=none;dashed=0;verticalLabelPosition=bottom;verticalAlign=top;align=center;html=1;fontSize=12;fontStyle=0;aspect=fixed;pointerEvents=1;shape=mxgraph.aws4.source_code;" vertex="1" parent="21FRXAbta1S1sVLUq5K--41">
          <mxGeometry x="34.46000000000001" y="53" width="36.54" height="50" as="geometry" />
        </mxCell>
        <mxCell id="21FRXAbta1S1sVLUq5K--5" value="" style="sketch=0;aspect=fixed;pointerEvents=1;shadow=0;dashed=0;html=1;strokeColor=none;labelPosition=center;verticalLabelPosition=bottom;verticalAlign=top;align=center;fillColor=#000000;shape=mxgraph.mscae.enterprise.code_file" vertex="1" parent="21FRXAbta1S1sVLUq5K--41">
          <mxGeometry x="28.230000000000015" width="49" height="50" as="geometry" />
        </mxCell>
        <mxCell id="21FRXAbta1S1sVLUq5K--40" value="" style="shape=image;html=1;verticalAlign=top;verticalLabelPosition=bottom;labelBackgroundColor=#ffffff;imageAspect=0;aspect=fixed;image=https://cdn1.iconfinder.com/data/icons/ionicons-sharp-vol-1/512/ellipsis-vertical-sharp-128.png" vertex="1" parent="21FRXAbta1S1sVLUq5K--41">
          <mxGeometry x="37.73000000000001" y="103.5" width="30" height="30" as="geometry" />
        </mxCell>
        <mxCell id="21FRXAbta1S1sVLUq5K--45" value="" style="html=1;verticalLabelPosition=bottom;align=center;labelBackgroundColor=#ffffff;verticalAlign=top;strokeWidth=3;strokeColor=#797979;shadow=0;dashed=0;shape=mxgraph.ios7.icons.trashcan;fontColor=#AAAAAA;" vertex="1" parent="1">
          <mxGeometry x="542" y="370" width="32" height="40" as="geometry" />
        </mxCell>
        <mxCell id="21FRXAbta1S1sVLUq5K--52" value="" style="sketch=0;outlineConnect=0;fontColor=#232F3E;gradientColor=none;fillColor=#000000;strokeColor=none;dashed=0;verticalLabelPosition=bottom;verticalAlign=top;align=center;html=1;fontSize=12;fontStyle=0;aspect=fixed;pointerEvents=1;shape=mxgraph.aws4.source_code;" vertex="1" parent="1">
          <mxGeometry x="729.61" y="720" width="23.39" height="32" as="geometry" />
        </mxCell>
        <mxCell id="21FRXAbta1S1sVLUq5K--53" value="" style="sketch=0;aspect=fixed;pointerEvents=1;shadow=0;dashed=0;html=1;strokeColor=none;labelPosition=center;verticalLabelPosition=bottom;verticalAlign=top;align=center;fillColor=#000000;shape=mxgraph.mscae.enterprise.code_file" vertex="1" parent="1">
          <mxGeometry x="698" y="722.5" width="26.46" height="27" as="geometry" />
        </mxCell>
        <mxCell id="21FRXAbta1S1sVLUq5K--56" style="edgeStyle=orthogonalEdgeStyle;rounded=0;orthogonalLoop=1;jettySize=auto;html=1;strokeWidth=4;" edge="1" parent="1" source="21FRXAbta1S1sVLUq5K--62" target="21FRXAbta1S1sVLUq5K--8">
          <mxGeometry relative="1" as="geometry">
            <mxPoint x="510" y="490" as="sourcePoint" />
          </mxGeometry>
        </mxCell>
        <mxCell id="21FRXAbta1S1sVLUq5K--58" style="edgeStyle=orthogonalEdgeStyle;rounded=0;orthogonalLoop=1;jettySize=auto;html=1;entryX=0.579;entryY=1.03;entryDx=0;entryDy=0;entryPerimeter=0;" edge="1" parent="1" source="21FRXAbta1S1sVLUq5K--62">
          <mxGeometry relative="1" as="geometry">
            <mxPoint x="510" y="490" as="sourcePoint" />
            <mxPoint x="558.528" y="411.20000000000005" as="targetPoint" />
          </mxGeometry>
        </mxCell>
        <mxCell id="21FRXAbta1S1sVLUq5K--62" value="&lt;span&gt;LLMZip&lt;/span&gt;" style="strokeWidth=4;html=1;shape=mxgraph.flowchart.merge_or_storage;whiteSpace=wrap;fillColor=none;fontStyle=1;labelPosition=center;verticalLabelPosition=bottom;align=center;verticalAlign=top;" vertex="1" parent="1">
          <mxGeometry x="414" y="460" width="95" height="60" as="geometry" />
        </mxCell>
        <mxCell id="21FRXAbta1S1sVLUq5K--51" value="" style="image;html=1;image=img/lib/clip_art/general/Gear_128x128.png" vertex="1" parent="1">
          <mxGeometry x="470" y="490" width="30" height="30" as="geometry" />
        </mxCell>
      </root>
    </mxGraphModel>
  </diagram>
</mxfile>
